<svg version="1.0" xmlns="http://www.w3.org/2000/svg" width="800.000000" height="800.000000" viewBox="0 0 800.000000 800.000000" preserveAspectRatio="xMidYMid meet">
  <metadata>
    <rdf:RDF xmlns:rdf="http://www.w3.org/1999/02/22-rdf-syntax-ns#" xmlns:rdfs="http://www.w3.org/2000/01/rdf-schema#" xmlns:dc="http://purl.org/dc/elements/1.1/">
      <rdf:Description dc:format="image/svg+xml" dc:Label="1" dc:ContentProducer="001191330110MACRLGPT8B00000" dc:ProduceID="393663774" dc:ReservedCode1="pLf9XO7wL82fJV8cfkKStCi4WEnhO0iyXaSVi/1f3ao=" dc:ContentPropagator="001191330110MACRLGPT8B00000" dc:PropagateID="393663774" dc:ReservedCode2="pLf9XO7wL82fJV8cfkKStCi4WEnhO0iyXaSVi/1f3ao="/>
    </rdf:RDF>
  </metadata>
  <g transform="translate(0.000000,800.000000) scale(0.100000,-0.100000)" fill="#000000" stroke="none">
    <path d="M2803 6451 c-48 -30 -62 -67 -75 -200 l-11 -121 -43 0 c-76 0 -152 -36 -219 -104 -67 -67 -104 -135 -134 -246 -11 -40 -22 -75 -24 -77 -3 -2 -74 8 -158 22 -136 23 -161 25 -215 15 -89 -17 -118 -38 -143 -105 -30 -80 -28 -137 7 -175 26 -29 33 -31 157 -46 72 -8 164 -24 205 -35 41 -11 100 -23 130 -27 l54 -7 14 -48 c17 -59 35 -71 142 -92 47 -9 131 -28 188 -41 76 -18 108 -22 122 -14 21 11 19 17 40 -80 14 -64 12 -156 -4 -218 -13 -47 -13 -59 0 -95 14 -39 14 -45 -7 -89 -21 -44 -21 -52 -9 -102 10 -43 10 -67 1 -112 -15 -79 -14 -169 4 -203 14 -29 56 -54 110 -67 17 -4 55 -20 85 -35 58 -31 107 -36 158 -18 27 9 36 8 61 -10 16 -12 45 -28 63 -36 18 -8 26 -14 16 -15 -40 -1 -1579 -374 -1609 -391 -12 -6 -27 -26 -35 -44 -13 -31 -10 -56 36 -302 114 -622 159 -845 174 -868 9 -14 33 -33 54 -44 96 -49 1774 -735 1902 -778 185 -61 342 -57 515 15 39 16 223 100 410 187 434 201 691 320 880 405 254 114 379 173 402 187 12 8 28 32 37 53 13 34 117 570 188 973 23 128 20 152 -24 181 -24 16 -145 53 -323 101 -55 14 -107 28 -116 31 -22 6 -32 201 -19 399 5 83 13 220 16 305 6 144 5 159 -14 202 -20 46 -102 141 -346 397 -70 74 -113 127 -105 128 8 2 160 21 339 44 264 33 341 39 411 34 146 -12 172 17 158 175 -9 109 -30 164 -73 184 -47 22 -159 38 -256 35 -76 -2 -90 0 -134 24 -39 22 -62 27 -115 27 -39 0 -78 -6 -95 -15 l-28 -15 6 68 c3 37 11 149 17 249 10 170 9 185 -8 220 -36 74 -17 72 -998 118 -422 20 -546 28 -1080 69 -668 52 -644 51 -682 27z m787 -85 c322 -24 702 -49 845 -55 513 -22 1020 -52 1042 -61 12 -5 29 -20 37 -32 16 -25 13 -126 -17 -528 l-12 -155 -25 3 c-22 2 -1073 -76 -1234 -93 -52 -5 -195 12 -209 25 -5 4 5 106 22 226 54 383 56 456 15 536 -11 21 -19 27 -26 20 -8 -8 -4 -26 11 -63 18 -40 22 -65 19 -118 -5 -89 -79 -584 -89 -595 -4 -5 -119 7 -266 28 -350 50 -314 39 -309 94 3 26 11 113 17 193 11 140 10 147 -10 186 -25 50 -63 78 -122 92 -49 12 -439 61 -482 61 -21 0 -27 5 -27 23 0 41 19 204 26 221 13 34 55 46 134 41 41 -3 338 -25 660 -49z m-630 -306 c96 -11 179 -20 184 -20 5 0 -11 -15 -36 -32 -142 -102 -222 -283 -292 -661 -13 -71 -28 -133 -34 -139 -12 -12 -362 59 -374 76 -7 11 -55 206 -64 263 -8 53 11 188 37 264 45 130 122 221 218 255 52 19 161 17 361 -6z m-35 -425 c-28 -53 -27 -46 2 50 15 51 18 56 21 30 1 -17 -9 -51 -23 -80z m-815 44 c74 -11 145 -23 158 -25 19 -4 22 -11 22 -52 0 -26 7 -78 15 -117 8 -38 15 -74 15 -78 0 -10 -57 -2 -163 24 -42 11 -132 26 -199 35 -67 8 -128 20 -135 26 -24 19 -12 103 23 162 9 15 51 30 124 45 3 1 66 -8 140 -20z m3649 -19 c71 -36 148 -116 186 -193 19 -40 37 -84 40 -98 6 -24 3 -27 -25 -31 -26 -4 -33 0 -46 24 -8 15 -27 35 -42 45 -15 9 -52 38 -82 63 -30 26 -81 62 -112 79 -48 27 -58 38 -58 60 0 68 62 91 139 51z m364 -50 c54 -16 66 -42 74 -153 8 -129 -3 -140 -119 -121 -31 5 -37 11 -42 38 -9 46 -78 185 -112 225 l-29 34 95 -6 c52 -4 112 -11 133 -17z m-2413 -160 c580 -84 800 -124 836 -152 21 -17 25 -27 22 -67 l-3 -46 -110 -22 c-60 -12 -135 -22 -166 -22 -31 -1 -240 24 -465 54 -225 30 -500 67 -611 82 -124 17 -203 32 -203 38 0 17 63 118 106 171 35 43 41 46 74 40 19 -3 253 -37 520 -76z m1837 8 c37 -22 159 -151 146 -155 -4 -1 -109 -13 -233 -28 -124 -14 -272 -32 -330 -40 -132 -19 -149 -19 -189 1 -38 19 -80 13 -121 -16 -27 -19 -134 -50 -177 -50 -21 0 -23 5 -23 58 0 39 -6 67 -20 89 -20 33 -38 41 -185 75 l-60 15 120 7 c66 5 300 23 520 41 420 35 499 35 552 3z m243 -81 c0 -13 6 -29 12 -35 10 -10 10 -15 -2 -22 -22 -14 -56 -12 -70 5 -10 12 -8 16 14 25 16 6 26 17 26 30 0 11 5 20 10 20 6 0 10 -10 10 -23z m-2503 -162 c136 -19 382 -53 547 -75 164 -21 300 -41 301 -42 3 -4 -108 -194 -153 -263 -42 -63 -59 -126 -70 -245 -7 -80 -15 -106 -45 -165 -24 -46 -40 -95 -48 -145 -10 -71 -60 -197 -83 -212 -13 -8 -60 0 -106 19 -50 20 -120 33 -232 43 -84 7 -102 11 -129 34 -35 30 -42 30 -119 14 -55 -11 -58 -10 -111 20 -30 16 -71 33 -92 37 -20 4 -48 16 -62 27 -29 23 -32 58 -13 167 9 53 9 84 0 131 -10 57 -9 66 10 103 19 37 19 45 8 94 -10 41 -11 62 -2 92 16 53 15 149 -4 255 -16 96 -14 116 13 116 10 0 29 7 43 14 38 21 77 19 347 -19z m2005 -47 c67 -66 414 -441 438 -475 23 -33 25 -43 25 -162 0 -69 -6 -218 -13 -331 -9 -151 -10 -246 -3 -360 6 -85 9 -156 7 -157 -1 -2 -185 47 -407 107 -442 121 -745 191 -1174 273 l-280 53 -3 110 -3 111 40 82 c31 65 41 97 45 159 10 129 24 177 70 244 23 35 69 109 101 165 l58 101 71 -1 c39 -1 120 9 179 21 90 19 114 21 146 11 32 -9 55 -8 137 11 54 12 112 31 128 42 28 20 31 20 80 5 47 -15 59 -15 166 2 155 25 154 25 192 -11z m-1461 -1183 c-1 -44 -4 -81 -6 -83 -2 -2 -43 2 -92 8 -80 11 -95 11 -163 -7 -137 -37 -1264 -363 -1306 -378 -64 -24 -83 -83 -42 -129 23 -25 45 -32 653 -216 399 -121 608 -184 850 -255 143 -42 273 -80 289 -86 76 -24 98 -18 1141 339 602 206 560 190 570 222 10 31 -3 57 -33 69 -107 43 -1059 265 -1647 384 l-160 32 -3 88 c-2 67 0 87 10 87 23 0 472 -87 673 -130 203 -44 449 -105 685 -170 301 -83 662 -172 676 -166 9 3 14 13 12 23 -3 16 -17 23 -95 43 -36 9 -43 15 -43 35 0 14 4 25 9 25 11 0 274 -69 278 -73 3 -4 -87 -167 -183 -333 -49 -86 -72 -115 -97 -127 -40 -19 -512 -196 -1167 -437 -272 -101 -515 -185 -540 -187 -48 -5 -200 42 -1220 378 -922 304 -1058 350 -1075 362 -18 14 -85 240 -85 288 0 49 -42 36 740 224 223 53 523 125 667 160 371 91 377 92 462 66 39 -12 90 -24 114 -27 39 -6 48 -3 78 25 19 16 38 29 43 28 5 -2 8 -39 7 -82z m-78 -129 c37 -7 70 -15 72 -18 3 -3 2 -69 -1 -147 -7 -134 -8 -141 -28 -142 -20 0 -20 -1 3 -10 15 -6 21 -14 17 -25 -3 -8 -2 -12 4 -9 22 13 8 -15 -16 -34 -42 -33 -69 -8 -43 41 17 31 4 32 -24 2 -25 -27 -64 -28 -54 -1 6 17 -19 77 -33 77 -5 0 -10 -13 -10 -28 0 -18 -10 -38 -29 -56 -24 -23 -35 -27 -77 -24 -38 2 -49 0 -49 -12 0 -10 12 -16 35 -18 19 -2 51 -15 69 -30 19 -14 64 -37 100 -50 37 -13 82 -30 101 -38 73 -28 168 -7 242 54 50 42 82 57 141 67 55 9 42 31 -15 27 -32 -2 -60 3 -89 18 -32 15 -54 19 -81 15 -30 -5 -38 -4 -38 8 0 17 -34 32 -49 22 -6 -3 -8 -12 -4 -20 3 -9 -1 -15 -11 -15 -14 0 -16 19 -16 155 0 117 3 157 13 161 28 10 856 -169 1406 -306 200 -49 368 -90 372 -90 5 0 9 -4 9 -9 0 -13 -113 -53 -1049 -370 -278 -94 -517 -171 -531 -171 -34 0 -650 181 -1609 474 -191 58 -230 75 -231 97 0 12 25 26 65 36 22 6 144 41 270 78 626 183 1052 304 1075 304 14 0 55 -6 93 -13z m2455 -348 c-5 -15 -23 -11 -26 6 -2 11 2 14 13 10 9 -4 14 -11 13 -16z m-2282 -40 c9 -30 -8 -40 -62 -36 -36 2 -49 7 -49 18 0 9 9 15 22 14 13 0 21 2 18 4 -3 3 0 11 5 17 15 18 58 6 66 -17z m2214 -38 c0 -5 -7 -10 -15 -10 -8 0 -15 5 -15 10 0 6 7 10 15 10 8 0 15 -4 15 -10z m-2250 -21 c11 -6 11 -8 2 -9 -7 0 -10 -5 -7 -10 4 -6 11 -8 16 -5 5 4 14 3 21 -1 8 -5 2 -11 -17 -16 -30 -8 -115 8 -115 22 0 5 -3 15 -6 24 -5 14 1 15 42 10 27 -4 56 -10 64 -15z m2100 -626 c-37 -170 -52 -222 -85 -278 -48 -82 -65 -92 -466 -270 -249 -111 -480 -207 -485 -203 -4 5 233 151 367 228 103 59 142 91 162 133 14 29 24 36 58 41 23 4 55 14 72 23 38 19 97 65 97 75 0 4 -19 8 -42 10 l-43 3 58 27 c64 30 195 118 223 150 l19 21 -56 -6 c-67 -6 -94 5 -64 29 11 9 45 28 76 44 54 28 129 98 129 122 0 6 3 9 6 6 3 -3 -9 -73 -26 -155z m-3725 123 c21 -15 23 -69 4 -92 -15 -19 -63 -18 -79 2 -20 23 -16 75 5 90 24 18 46 18 70 0z m-247 -113 c5 -17 -26 -29 -40 -15 -6 6 -7 15 -3 22 9 14 37 9 43 -7z m70 -85 c-3 -7 -11 -13 -18 -13 -7 0 -15 6 -17 13 -3 7 4 12 17 12 13 0 20 -5 18 -12z m222 -13 c16 -20 5 -45 -20 -45 -14 0 -20 7 -20 23 0 38 18 48 40 22z m1794 -470 c6 -197 51 -362 110 -400 28 -18 53 -82 39 -96 -20 -20 -168 -41 -252 -36 -130 7 -390 91 -580 187 -73 36 -106 60 -83 60 4 0 48 -14 98 -31 101 -35 159 -39 348 -25 l119 9 -8 -24 c-4 -13 -8 -40 -9 -59 -1 -29 3 -36 27 -44 56 -20 102 26 142 141 24 69 25 85 26 290 1 240 16 258 23 28z"/>
    <path d="M4170 6244 c-15 -38 -12 -59 10 -85 l20 -24 20 24 c22 25 26 62 10 92 -15 28 -49 24 -60 -7z"/>
    <path d="M4291 6107 c-13 -17 -4 -50 13 -44 15 5 20 37 9 48 -6 6 -14 4 -22 -4z"/>
    <path d="M4157 6064 c-10 -10 -9 -52 2 -58 13 -8 33 20 29 40 -3 19 -20 28 -31 18z"/>
    <path d="M2512 5879 c-47 -34 -93 -120 -111 -207 -17 -80 -14 -89 15 -46 14 21 38 51 52 67 28 29 24 34 -11 16 -21 -11 -21 -10 2 15 14 14 42 31 63 38 38 11 43 28 7 28 -35 0 -33 28 6 75 43 53 35 57 -23 14z"/>
    <path d="M5485 5410 c4 -6 11 -8 16 -5 14 9 11 15 -7 15 -8 0 -12 -5 -9 -10z"/>
    <path d="M5540 5365 c0 -8 5 -15 10 -15 6 0 10 7 10 15 0 8 -4 15 -10 15 -5 0 -10 -7 -10 -15z"/>
    <path d="M3845 5103 c-16 -2 -46 -6 -65 -10 l-35 -7 50 -7 c72 -11 203 -11 209 0 14 22 -72 35 -159 24z"/>
    <path d="M3970 5030 c-11 -7 -7 -10 17 -10 17 0 35 5 38 10 8 13 -35 13 -55 0z"/>
    <path d="M1927 3624 c-17 -17 -4 -25 36 -22 23 2 42 8 42 13 0 12 -67 19 -78 9z"/>
    <path d="M1830 3560 c-11 -7 -5 -10 23 -10 23 0 36 4 32 10 -8 13 -35 13 -55 0z"/>
    <path d="M2760 3579 c-315 -95 -398 -125 -384 -139 5 -5 64 -25 129 -43 66 -19 219 -63 340 -99 289 -86 295 -87 192 -31 l-87 48 32 11 33 11 -50 8 c-64 10 -137 40 -165 70 -25 26 -13 41 25 31 43 -11 36 12 -10 33 -50 22 -57 38 -20 47 13 3 33 21 44 40 25 41 19 42 -79 13z"/>
    <path d="M5190 3490 c0 -5 9 -10 21 -10 11 0 17 5 14 10 -3 6 -13 10 -21 10 -8 0 -14 -4 -14 -10z"/>
    <path d="M3647 3323 c-44 -7 -20 -23 34 -23 36 0 49 4 47 13 -5 13 -36 17 -81 10z"/>
  </g>
</svg>