<?xml version="1.0" encoding="utf-8"?>
<svg xmlns="http://www.w3.org/2000/svg" width="640" height="480" viewBox="0 0 640 480">
  <g fill="#000000">
    <!-- H -->
    <path d="M40,120 L80,120 L80,360 L40,360 Z"/>
    <path d="M120,120 L160,120 L160,360 L120,360 Z"/>
    <path d="M40,220 L160,220 L160,260 L40,260 Z"/>

    <!-- U -->
    <path d="M180,120 L220,120 L220,320 L180,320 Z"/>
    <path d="M260,120 L300,120 L300,320 L260,320 Z"/>
    <path d="M180,320 L300,320 L300,360 L180,360 Z"/>

    <!-- S -->
    <path d="M320,120 L440,120 L440,160 L320,160 Z"/>
    <path d="M320,160 L360,160 L360,220 L320,220 Z"/>
    <path d="M320,220 L440,220 L440,260 L320,260 Z"/>
    <path d="M400,260 L440,260 L440,320 L400,320 Z"/>
    <path d="M320,320 L440,320 L440,360 L320,360 Z"/>

    <!-- T -->
    <path d="M460,120 L600,120 L600,160 L460,160 Z"/>
    <path d="M510,160 L550,160 L550,360 L510,360 Z"/>
  </g>
</svg>
