<?xml version="1.0" standalone="no"?><!DOCTYPE svg PUBLIC "-//W3C//DTD SVG 1.1//EN" "http://www.w3.org/Graphics/SVG/1.1/DTD/svg11.dtd"><svg t="1776396116314" class="icon" viewBox="0 0 1026 1024" version="1.1" xmlns="http://www.w3.org/2000/svg" p-id="13924" xmlns:xlink="http://www.w3.org/1999/xlink" width="200.390625" height="200"><path d="M311.637333 403.114667c-171.84 0-311.637333 137.066667-311.637333 305.578667 0 168.512 139.797333 305.621333 311.637333 305.621333 171.84 0 311.637333-137.109333 311.637333-305.621333C623.296 540.181333 483.477333 403.114667 311.637333 403.114667zM311.637333 971.648c-148.309333 0-268.970667-117.952-268.970667-262.954667 0-144.96 120.661333-262.912 268.970667-262.912s268.970667 117.952 268.970667 262.912C580.629333 853.696 459.946667 971.648 311.637333 971.648z" p-id="13925"></path><path d="M225.728 362.624c11.733333-1.152 20.288-11.605333 19.136-23.317333-0.789333-7.957333-1.194667-16.021333-1.194667-24.192 0-144.96 120.64-262.890667 268.949333-262.890667 148.330667 0 268.992 117.930667 268.992 262.890667 0 93.930667-51.968 181.333333-135.616 228.117333-10.261333 5.76-13.952 18.752-8.213333 29.034667 3.925333 6.976 11.157333 10.922667 18.645333 10.922667 3.52 0 7.104-0.874667 10.389333-2.709333 97.130667-54.336 157.461333-156.010667 157.461333-265.365333 0-168.490667-139.818667-305.557333-311.658667-305.557333-171.818667 0-311.616 137.066667-311.616 305.557333 0 9.578667 0.469333 19.050667 1.386667 28.373333C203.562667 355.221333 214.144 363.882667 225.728 362.624z" p-id="13926"></path><path d="M980.522667 550.656c-28.16-45.653333-68.309333-83.349333-116.053333-109.056-10.346667-5.610667-23.317333-1.706667-28.885333 8.661333s-1.685333 23.317333 8.682667 28.885333c41.152 22.165333 75.733333 54.634667 99.989333 93.909333 36.8 59.584 47.872 129.685333 31.189333 197.376-16.938667 68.757333-60.373333 126.762667-122.261333 163.392-81.642667 48.256-184.469333 50.389333-268.416 5.589333-10.325333-5.525333-23.338667-1.642667-28.864 8.768-5.568 10.368-1.621333 23.317333 8.768 28.864 46.485333 24.832 97.962667 37.184 149.376 37.184 55.893333 0 111.68-14.613333 160.832-43.690667 71.850667-42.474667 122.261333-109.930667 141.994667-189.888C1036.288 701.76 1023.402667 620.053333 980.522667 550.656z" p-id="13927"></path></svg>