<?xml version="1.0" standalone="no"?><!DOCTYPE svg PUBLIC "-//W3C//DTD SVG 1.1//EN" "http://www.w3.org/Graphics/SVG/1.1/DTD/svg11.dtd"><svg t="1776392767648" class="icon" viewBox="0 0 1024 1024" version="1.1" xmlns="http://www.w3.org/2000/svg" p-id="12817" xmlns:xlink="http://www.w3.org/1999/xlink" width="200" height="200"><path d="M494.257439 0q117.266005 0 218.834987 59.09468 97.875564 57.247971 155.123534 155.123535 59.09468 101.568981 59.09468 218.834986t-59.09468 218.834987q-57.247971 97.875564-155.123534 155.123534-101.568981 59.09468-218.834987 59.09468t-218.834986-59.09468q-97.875564-57.247971-155.123535-155.123534-59.09468-101.568981-59.09468-218.834987t59.09468-218.834986Q177.546889 116.342651 275.422453 59.09468q101.568981-59.09468 218.834986-59.09468z m181.900812 461.677187q6.463481-4.616772 10.618575-12.465284T690.931921 433.053201q0-8.310189-4.155095-16.158701T676.158251 404.429216L429.622633 241.918846q-8.310189-5.540126-17.543733-6.001804t-17.543733 4.155095q-8.310189 4.616772-13.388639 12.926961t-5.078449 17.543733v325.02074q0 9.233544 5.078449 17.543733t13.388639 12.926961q8.310189 4.616772 17.543733 4.155095t17.543733-6.001804l246.535618-162.510369z" fill="#666666" p-id="12818"></path></svg>